<?xml version="1.0" encoding="UTF-8"?>
<svg id="Layer_1" data-name="Layer 1" xmlns="http://www.w3.org/2000/svg" viewBox="0 0 50 50.01">
  <defs>
    <style>
      .cls-1 {
        fill: #000;
      }

      .cls-1, .cls-2 {
        stroke-width: 0px;
      }

      .cls-2 {
        fill: #fff;
      }
    </style>
  </defs>
  <path class="cls-1" d="M23.44,0c1.04,0,2.08,0,3.13,0,.14.03.28.06.42.08,1.33.21,2.69.32,3.99.64,12.8,3.17,20.86,15.55,18.65,28.58-1.86,10.98-11.02,19.53-22.16,20.58-6.62.63-12.62-1.09-17.86-5.2C4.58,40.74,1.5,35.58.37,29.27.22,28.38.12,27.47,0,26.57c0-1.04,0-2.08,0-3.13.07-.6.13-1.19.22-1.79.71-5.05,2.73-9.51,6.14-13.3C10.23,4.06,15.03,1.37,20.75.38c.89-.15,1.8-.25,2.7-.38ZM25.01,16.41c-3.58,0-7.16,0-10.74,0-1.14,0-1.76.62-1.76,1.74,0,4.56,0,9.12,0,13.67,0,1.16.62,1.77,1.78,1.77,7.15,0,14.29,0,21.44,0,1.17,0,1.78-.61,1.78-1.77,0-4.54,0-9.08,0-13.63,0-1.19-.61-1.79-1.81-1.8-3.56,0-7.13,0-10.69,0Z"/>
  <path class="cls-2" d="M25.01,16.41c3.56,0,7.13,0,10.69,0,1.2,0,1.81.61,1.81,1.8,0,4.54,0,9.08,0,13.63,0,1.16-.62,1.77-1.78,1.77-7.15,0-14.29,0-21.44,0-1.17,0-1.78-.61-1.78-1.77,0-4.56,0-9.12,0-13.67,0-1.13.62-1.74,1.76-1.74,3.58,0,7.16,0,10.74,0ZM34.51,18.01H15.92c2.95,3.04,6.01,6.18,9.08,9.35,3.18-3.12,6.31-6.2,9.51-9.35ZM14.08,32.04c.37,0,.7-.03,1.02,0,.43.05.72-.13,1.01-.42,1.04-1.05,2.11-2.07,3.16-3.12.75-.74,1.48-1.5,2.13-2.16-2.45-2.46-4.91-4.92-7.32-7.34v13.04ZM35.93,19.01c-2.44,2.44-4.86,4.85-7.33,7.32.16.14.34.3.51.47,1.57,1.54,3.18,3.04,4.68,4.64.66.71,1.37.62,2.14.57v-12.99ZM18.01,32h14.06c-1.6-1.55-3.14-3.04-4.75-4.59-.35.38-.67.75-1.02,1.09-.81.8-1.67.81-2.47.01-.36-.36-.69-.77-1.05-1.17-1.64,1.6-3.18,3.1-4.77,4.66Z"/>
  <path class="cls-1" d="M34.51,18.01c-3.2,3.14-6.33,6.22-9.51,9.35-3.08-3.17-6.13-6.31-9.08-9.35h18.59Z"/>
  <path class="cls-1" d="M14.08,32.04v-13.04c2.42,2.42,4.87,4.88,7.32,7.34-.65.66-1.38,1.42-2.13,2.16-1.05,1.04-2.12,2.07-3.16,3.12-.29.3-.59.47-1.01.42-.32-.04-.65,0-1.02,0Z"/>
  <path class="cls-1" d="M35.93,19.01v12.99c-.78.05-1.48.14-2.14-.57-1.5-1.6-3.11-3.1-4.68-4.64-.17-.17-.35-.33-.51-.47,2.47-2.46,4.89-4.88,7.33-7.32Z"/>
  <path class="cls-1" d="M18.01,32c1.6-1.56,3.13-3.06,4.77-4.66.36.4.68.81,1.05,1.17.8.8,1.67.79,2.47-.01.34-.34.66-.71,1.02-1.09,1.61,1.55,3.15,3.04,4.75,4.59h-14.06Z"/>
</svg>