<?xml version="1.0" encoding="UTF-8"?>
<svg id="Layer_1" data-name="Layer 1" xmlns="http://www.w3.org/2000/svg" viewBox="0 0 47.66 47.66">
  <defs>
    <style>
      .cls-1 {
        fill: #000;
      }

      .cls-1, .cls-2 {
        stroke-width: 0px;
      }

      .cls-2 {
        fill: #fff;
      }
    </style>
  </defs>
  <circle class="cls-1" cx="23.83" cy="23.83" r="23.83"/>
  <path class="cls-2" d="M23.83,36.72c-1.05,0-2.11-.3-3.13-.9-.41-.24-.8-.5-1.2-.77l-.45-.3c-.34-.22-.72-.36-1.18-.43-.17-.03-.34-.04-.5-.04-.4,0-.8.06-1.2.11l-.63.08h-.2c-.78,0-1.33-.46-1.36-1.15-.03-.47-.12-.67-.98-.77-.52-.06-1-.26-1.39-.42-.67-.28-1.12-.68-1.37-1.22l-.06-.13v-.8l.16-.19c.22-.26.52-.54.99-.63,1.72-.34,3.05-1.37,4.18-3.25.43-.71.46-.92.45-.98-.02-.03-.19-.17-1.01-.47-.16-.05-.24-.08-.32-.11-.4-.16-.82-.35-1.2-.68-.51-.44-.71-1.03-.57-1.63.16-.65.7-1.16,1.43-1.33.15-.04.3-.05.45-.05.4,0,.76.12,1.07.23.1.03.2.07.29.09-.09-1-.1-2.03-.05-3.28.11-2.36,1.26-4.26,3.33-5.49,1.44-.86,2.93-1.29,4.43-1.29s2.96.42,4.38,1.26c1.92,1.13,3.07,2.84,3.32,4.97.15,1.3.1,2.59,0,3.79.07-.02.15-.05.22-.07.33-.1.7-.22,1.11-.22.3,0,.59.06.87.18.69.3,1.13.93,1.11,1.59-.01.45-.24.9-.63,1.24-.39.34-.85.52-1.25.69l-.49.19c-.18.06-.35.13-.52.21-.21.1-.26.17-.27.17,0,0,0,.07.07.23,1.07,2.25,2.49,3.52,4.48,3.99.48.11.84.33,1.1.68l.13.18v.79l-.07.14c-.27.57-.76.97-1.48,1.24-.59.23-1.09.42-1.65.46-.4.03-.5.11-.55.5-.09.62-.33,1.33-1.4,1.33-.1,0-.22,0-.35-.02-.17-.01-.35-.04-.53-.08-.38-.07-.72-.1-1.05-.1-.88,0-1.62.25-2.27.77-.21.17-.44.31-.66.46-1.28.83-2.47,1.21-3.65,1.21Z"/>
  <path class="cls-1" d="M23.83,11.61c1.35,0,2.71.39,4.04,1.17,1.67.98,2.75,2.47,2.99,4.46.15,1.3.09,2.6-.01,3.89-.03.42.02.59.29.59.09,0,.2-.02.34-.05.49-.12.93-.33,1.4-.33.19,0,.39.04.59.13.38.17.72.53.71.95,0,.29-.17.55-.39.74-.33.29-.77.45-1.17.61-.31.13-.64.22-.94.37-.63.29-.81.68-.52,1.31,1.02,2.15,2.52,3.79,4.94,4.36.3.07.53.19.71.43v.41c-.23.47-.64.73-1.11.91-.47.18-.95.38-1.46.41-.7.04-1.07.35-1.18,1.08-.09.59-.25.75-.73.75-.09,0-.18,0-.29-.01-.17-.01-.33-.04-.5-.07-.39-.07-.77-.11-1.14-.11-.96,0-1.87.26-2.69.92-.22.18-.47.33-.71.49-1.04.68-2.1,1.03-3.17,1.03-.92,0-1.85-.26-2.79-.81-.55-.32-1.08-.7-1.62-1.05-.44-.29-.92-.45-1.46-.53-.2-.03-.4-.04-.6-.04-.63,0-1.25.13-1.87.19-.06,0-.11,0-.16,0-.36,0-.67-.14-.69-.52-.06-1.05-.7-1.31-1.58-1.4-.41-.05-.82-.21-1.2-.37-.42-.18-.81-.43-1.01-.87v-.41c.17-.19.34-.36.61-.41,2.13-.42,3.55-1.78,4.63-3.56.9-1.5.76-1.84-.91-2.43-.1-.03-.19-.06-.29-.1-.36-.15-.72-.31-1.01-.56-.75-.65-.3-1.58.57-1.79.1-.02.2-.03.29-.03.52,0,1,.31,1.53.37.05,0,.1.01.15.01.31,0,.43-.16.38-.54-.13-1.14-.13-2.29-.07-3.44.1-2.19,1.18-3.86,3-4.94,1.34-.79,2.71-1.19,4.09-1.19M23.83,10.26c-1.62,0-3.23.47-4.78,1.38-2.28,1.35-3.54,3.44-3.66,6.04-.04.88-.05,1.66-.02,2.38-.19-.04-.4-.07-.62-.07-.21,0-.41.02-.61.07-.97.23-1.71.93-1.93,1.83-.2.84.09,1.7.78,2.3.45.39.95.62,1.39.79.09.04.18.07.27.1.19.07.34.12.46.17-.05.09-.11.19-.18.31-1.02,1.7-2.21,2.63-3.73,2.93-.77.15-1.21.66-1.37.85l-.33.38v1.2l.12.27c.32.7.88,1.22,1.72,1.57.43.18.97.4,1.58.47.19.02.31.05.37.06,0,.02,0,.04,0,.07.06,1.06.9,1.8,2.04,1.8.1,0,.21,0,.31-.02.21-.02.42-.05.62-.08.39-.05.76-.11,1.1-.11.13,0,.26,0,.4.03.37.06.66.16.92.33l.47.31c.4.27.79.53,1.2.77,1.13.66,2.3,1,3.47,1,1.32,0,2.63-.42,3.91-1.25l.13-.08c.24-.15.48-.31.7-.49.53-.43,1.11-.62,1.84-.62.28,0,.58.03.9.09.23.04.43.07.63.09.15.01.28.02.4.02.81,0,1.81-.32,2.06-1.84.64-.05,1.17-.26,1.65-.44l.14-.05c.89-.34,1.49-.85,1.84-1.58l.14-.28v-1.17l-.27-.36c-.35-.47-.85-.79-1.49-.94-1.66-.39-2.89-1.43-3.84-3.25.05-.02.1-.04.15-.05.14-.05.28-.1.41-.16l.09-.04c.44-.18.98-.39,1.46-.81.53-.46.84-1.09.86-1.73.02-.94-.57-1.81-1.52-2.23-.36-.16-.75-.24-1.14-.24-.21,0-.41.02-.6.06.05-.98.05-1.96-.07-2.97-.28-2.34-1.54-4.23-3.65-5.47-1.53-.9-3.12-1.36-4.73-1.36h0Z"/>
</svg>