<?xml version="1.0" encoding="UTF-8"?>
<svg id="Layer_1" data-name="Layer 1" xmlns="http://www.w3.org/2000/svg" viewBox="0 0 47.66 47.66">
  <defs>
    <style>
      .cls-1 {
        fill: #000;
      }

      .cls-1, .cls-2 {
        stroke-width: 0px;
      }

      .cls-2 {
        fill: #fff;
      }
    </style>
  </defs>
  <circle class="cls-1" cx="23.83" cy="23.83" r="23.83"/>
  <path class="cls-2" d="M29.38,22.79c.11.05.21.1.32.14,1.49.72,2.59,1.8,3.16,3.14.8,1.87.88,4.9-1.55,7.32-1.85,1.85-4.11,2.68-7.29,2.71h-.02c-3.59-.03-6.34-1.23-8.2-3.59-1.65-2.1-2.5-5.02-2.53-8.67v-.02h0c.03-3.67.87-6.59,2.53-8.68,1.86-2.36,4.62-3.56,8.21-3.59h.02c3.59.03,6.39,1.23,8.3,3.57.94,1.16,1.64,2.56,2.08,4.18l-2.07.55c-.36-1.32-.91-2.44-1.65-3.34-1.49-1.83-3.73-2.77-6.67-2.79-2.91.03-5.12.96-6.55,2.78-1.34,1.7-2.03,4.17-2.06,7.32.03,3.15.72,5.62,2.06,7.33,1.43,1.82,3.64,2.76,6.55,2.78,2.63-.02,4.37-.64,5.81-2.09,1.65-1.65,1.62-3.67,1.09-4.9-.31-.73-.87-1.33-1.63-1.78-.19,1.38-.6,2.47-1.26,3.31-.87,1.11-2.12,1.72-3.72,1.8-1.21.07-2.37-.22-3.27-.82-1.06-.71-1.69-1.78-1.75-3.03-.13-2.47,1.83-4.24,4.87-4.42,1.08-.06,2.09-.02,3.03.14-.12-.76-.37-1.36-.75-1.8-.51-.6-1.31-.9-2.36-.91h-.04c-.85,0-1.99.24-2.73,1.34l-1.76-1.21c.98-1.49,2.57-2.31,4.49-2.31h.04c3.2.02,5.11,2.02,5.3,5.51h-.01s0,.01,0,.01ZM21.4,26.31c.07,1.28,1.45,1.88,2.79,1.8,1.31-.07,2.79-.58,3.04-3.74-.67-.15-1.42-.22-2.22-.22-.25,0-.49,0-.74.02-2.19.12-2.92,1.19-2.87,2.14h0s0,0,0,0Z"/>
</svg>