<?xml version="1.0" encoding="UTF-8"?>
<svg id="Layer_1" data-name="Layer 1" xmlns="http://www.w3.org/2000/svg" viewBox="0 0 47.66 47.66">
  <defs>
    <style>
      .cls-1 {
        fill: #000;
      }

      .cls-1, .cls-2 {
        stroke-width: 0px;
      }

      .cls-2 {
        fill: #fff;
      }
    </style>
  </defs>
  <circle class="cls-1" cx="23.83" cy="23.83" r="23.83"/>
  <path class="cls-2" d="M34.12,21.28h0c-.22.02-.44.03-.66.03-2.41,0-4.67-1.22-5.99-3.24v11.02c0,4.5-3.65,8.15-8.15,8.15s-8.15-3.65-8.15-8.15,3.65-8.15,8.15-8.15c.17,0,.34.02.5.03v4.01c-.17-.02-.33-.05-.5-.05-2.3,0-4.16,1.86-4.16,4.16s1.86,4.16,4.16,4.16,4.32-1.81,4.32-4.11l.04-18.72h3.84c.36,3.44,3.14,6.13,6.59,6.39v4.46Z"/>
</svg>