<?xml version="1.0" encoding="UTF-8"?>
<svg id="Layer_1" data-name="Layer 1" xmlns="http://www.w3.org/2000/svg" viewBox="0 0 47.66 47.66">
  <defs>
    <style>
      .cls-1 {
        fill-rule: evenodd;
      }

      .cls-1, .cls-2, .cls-3 {
        stroke-width: 0px;
      }

      .cls-1, .cls-3 {
        fill: #fff;
      }

      .cls-2 {
        fill: #000;
      }
    </style>
  </defs>
  <circle class="cls-2" cx="23.83" cy="23.83" r="23.83"/>
  <g>
    <path class="cls-3" d="M11.56,36.13l1.76-6.58c-1-1.8-1.52-3.82-1.52-5.87,0-6.7,5.45-12.15,12.15-12.15s12.15,5.45,12.15,12.15-5.45,12.15-12.15,12.15c-2.01,0-4-.51-5.78-1.47l-6.61,1.77ZM18.5,31.89l.42.25c1.53.91,3.27,1.39,5.03,1.39,5.43,0,9.85-4.42,9.85-9.85s-4.42-9.85-9.85-9.85-9.85,4.42-9.85,9.85c0,1.79.5,3.56,1.44,5.11l.26.42-.98,3.67,3.7-.99Z"/>
    <path class="cls-1" d="M28.47,25.37c-.5-.3-1.15-.63-1.74-.39-.45.18-.74.89-1.03,1.25-.15.19-.33.21-.56.12-1.7-.68-3-1.81-3.93-3.37-.16-.24-.13-.43.06-.66.28-.33.64-.71.71-1.16.08-.45-.13-.97-.32-1.37-.24-.51-.5-1.24-1.01-1.53-.47-.27-1.09-.12-1.51.22-.72.59-1.07,1.51-1.06,2.43,0,.26.03.52.1.77.15.6.42,1.17.74,1.7.24.4.49.8.77,1.17.91,1.23,2.04,2.3,3.34,3.11.65.4,1.36.75,2.09.99.82.27,1.55.55,2.43.38.92-.18,1.83-.75,2.2-1.64.11-.26.16-.56.1-.84-.13-.58-.9-.92-1.37-1.2Z"/>
  </g>
</svg>